<svg id="visual" viewBox="0 0 900 600" width="900" height="600" xmlns="http://www.w3.org/2000/svg" xmlns:xlink="http://www.w3.org/1999/xlink" version="1.1"><path d="M0 468L30 475.7C60 483.3 120 498.7 180 493.5C240 488.3 300 462.7 360 463.7C420 464.7 480 492.3 540 504.2C600 516 660 512 720 504.3C780 496.7 840 485.3 870 479.7L900 474L900 601L870 601C840 601 780 601 720 601C660 601 600 601 540 601C480 601 420 601 360 601C300 601 240 601 180 601C120 601 60 601 30 601L0 601Z" fill="#BC4749" stroke-linecap="round" stroke-linejoin="miter"></path></svg>